<svg xmlns="http://www.w3.org/2000/svg" xmlns:xlink="http://www.w3.org/1999/xlink" width="70" zoomAndPan="magnify" viewBox="0 0 52.5 52.499999" height="70" preserveAspectRatio="xMidYMid meet" version="1.0"><defs><clipPath id="c850ec9856"><path d="M 37 23.457031 L 51.75 23.457031 L 51.75 36.589844 L 37 36.589844 Z M 37 23.457031 " clip-rule="nonzero"/></clipPath><clipPath id="33e0259bdb"><path d="M 40 2.9375 L 50 2.9375 L 50 12 L 40 12 Z M 40 2.9375 " clip-rule="nonzero"/></clipPath><clipPath id="76f936f7b8"><path d="M 11.328125 43.566406 L 17.523438 43.566406 L 17.523438 49.4375 L 11.328125 49.4375 Z M 11.328125 43.566406 " clip-rule="nonzero"/></clipPath><clipPath id="acafc2e217"><path d="M 20.558594 20.523438 L 28.058594 20.523438 L 28.058594 28.023438 L 20.558594 28.023438 Z M 20.558594 20.523438 " clip-rule="nonzero"/></clipPath><clipPath id="c54bb90789"><path d="M 6.859375 12.347656 L 20.359375 12.347656 L 20.359375 24.347656 L 6.859375 24.347656 Z M 6.859375 12.347656 " clip-rule="nonzero"/></clipPath><clipPath id="c367e22b56"><path d="M 0.839844 27.71875 L 14.339844 27.71875 L 14.339844 39.71875 L 0.839844 39.71875 Z M 0.839844 27.71875 " clip-rule="nonzero"/></clipPath><clipPath id="b93c27834d"><path d="M 37.960938 23.898438 L 51.460938 23.898438 L 51.460938 35.898438 L 37.960938 35.898438 Z M 37.960938 23.898438 " clip-rule="nonzero"/></clipPath><clipPath id="0da7ad31dc"><path d="M 17.308594 29.785156 L 30.808594 29.785156 L 30.808594 41.785156 L 17.308594 41.785156 Z M 17.308594 29.785156 " clip-rule="nonzero"/></clipPath><clipPath id="662abcd040"><path d="M 27.753906 12.347656 L 41.253906 12.347656 L 41.253906 24.347656 L 27.753906 24.347656 Z M 27.753906 12.347656 " clip-rule="nonzero"/></clipPath><clipPath id="7832d67175"><path d="M 11.546875 43.804688 L 17.308594 43.804688 L 17.308594 49.5625 L 11.546875 49.5625 Z M 11.546875 43.804688 " clip-rule="nonzero"/></clipPath><clipPath id="8eb8e2b036"><path d="M 11.546875 44 L 17 44 L 17 49.5625 L 11.546875 49.5625 Z M 11.546875 44 " clip-rule="nonzero"/></clipPath><clipPath id="c2980ec29a"><path d="M 40.664062 2.9375 L 50.074219 2.9375 L 50.074219 12.347656 L 40.664062 12.347656 Z M 40.664062 2.9375 " clip-rule="nonzero"/></clipPath></defs><path fill="#77b2e6" d="M 37.8125 47.785156 L 31.101562 47.785156 C 30.902344 47.785156 30.71875 47.679688 30.621094 47.511719 L 27.265625 41.734375 C 27.167969 41.5625 27.167969 41.355469 27.265625 41.179688 L 30.621094 35.40625 C 30.71875 35.234375 30.902344 35.128906 31.101562 35.128906 L 37.8125 35.128906 C 38.011719 35.128906 38.195312 35.234375 38.292969 35.40625 L 41.648438 41.179688 C 41.746094 41.351562 41.746094 41.5625 41.648438 41.734375 L 38.292969 47.507812 C 38.195312 47.679688 38.011719 47.785156 37.8125 47.785156 Z M 31.425781 46.679688 L 37.488281 46.679688 L 40.523438 41.457031 L 37.488281 36.238281 L 31.425781 36.238281 L 28.390625 41.457031 L 31.425781 46.679688 " fill-opacity="1" fill-rule="evenodd"/><g clip-path="url(#c850ec9856)"><path fill="#7c60e9" d="M 47.839844 36.238281 L 41.128906 36.238281 C 40.929688 36.238281 40.746094 36.132812 40.648438 35.960938 L 37.292969 30.1875 C 37.195312 30.011719 37.195312 29.804688 37.292969 29.632812 L 40.648438 23.855469 C 40.746094 23.683594 40.929688 23.578125 41.128906 23.578125 L 47.839844 23.578125 C 48.039062 23.578125 48.222656 23.683594 48.320312 23.855469 L 51.675781 29.632812 C 51.773438 29.804688 51.773438 30.011719 51.675781 30.183594 L 48.320312 35.960938 C 48.222656 36.132812 48.039062 36.238281 47.839844 36.238281 Z M 41.453125 35.128906 L 47.523438 35.128906 L 50.554688 29.910156 L 47.523438 24.6875 L 41.453125 24.6875 L 38.421875 29.910156 L 41.453125 35.128906 " fill-opacity="1" fill-rule="evenodd"/></g><path fill="#7c60e9" d="M 11.625 39.957031 L 4.914062 39.957031 C 4.714844 39.957031 4.53125 39.851562 4.433594 39.679688 L 1.078125 33.902344 C 0.980469 33.730469 0.980469 33.523438 1.078125 33.347656 L 4.433594 27.574219 C 4.53125 27.402344 4.714844 27.296875 4.914062 27.296875 L 11.625 27.296875 C 11.824219 27.296875 12.007812 27.402344 12.105469 27.574219 L 15.460938 33.347656 C 15.558594 33.523438 15.558594 33.730469 15.460938 33.902344 L 12.105469 39.679688 C 12.007812 39.847656 11.824219 39.957031 11.625 39.957031 Z M 5.238281 38.847656 L 11.304688 38.847656 L 14.339844 33.625 L 11.304688 28.40625 L 5.238281 28.40625 L 2.207031 33.625 L 5.238281 38.847656 " fill-opacity="1" fill-rule="evenodd"/><path fill="#77b2e6" d="M 27.746094 42.011719 L 21.039062 42.011719 C 20.839844 42.011719 20.65625 41.90625 20.558594 41.734375 L 17.203125 35.960938 C 17.105469 35.789062 17.105469 35.578125 17.203125 35.40625 L 20.558594 29.632812 C 20.65625 29.457031 20.839844 29.355469 21.039062 29.355469 L 27.746094 29.355469 C 27.949219 29.355469 28.132812 29.457031 28.230469 29.632812 L 31.582031 35.40625 C 31.683594 35.578125 31.683594 35.789062 31.582031 35.960938 L 28.230469 41.734375 C 28.132812 41.902344 27.949219 42.011719 27.746094 42.011719 Z M 21.359375 40.902344 L 27.425781 40.902344 L 30.460938 35.683594 L 27.425781 30.460938 L 21.359375 30.460938 L 18.328125 35.683594 L 21.359375 40.902344 " fill-opacity="1" fill-rule="evenodd"/><path fill="#77b2e6" d="M 37.8125 24.6875 L 31.101562 24.6875 C 30.902344 24.6875 30.71875 24.582031 30.621094 24.410156 L 27.265625 18.636719 C 27.167969 18.464844 27.167969 18.253906 27.265625 18.082031 L 30.621094 12.308594 C 30.71875 12.132812 30.902344 12.03125 31.101562 12.03125 L 37.8125 12.03125 C 38.011719 12.03125 38.195312 12.132812 38.292969 12.308594 L 41.648438 18.082031 C 41.746094 18.253906 41.746094 18.460938 41.648438 18.636719 L 38.292969 24.410156 C 38.195312 24.582031 38.011719 24.6875 37.8125 24.6875 Z M 31.425781 23.578125 L 37.488281 23.578125 L 40.523438 18.359375 L 37.488281 13.136719 L 31.425781 13.136719 L 28.390625 18.359375 L 31.425781 23.578125 " fill-opacity="1" fill-rule="evenodd"/><path fill="#77b2e6" d="M 27.679688 30.382812 L 20.96875 30.382812 C 20.769531 30.382812 20.585938 30.277344 20.488281 30.105469 L 17.132812 24.332031 C 17.035156 24.160156 17.035156 23.953125 17.132812 23.777344 L 20.488281 18.003906 C 20.585938 17.832031 20.769531 17.726562 20.96875 17.726562 L 27.679688 17.726562 C 27.878906 17.726562 28.0625 17.832031 28.160156 18.003906 L 31.515625 23.777344 C 31.613281 23.953125 31.613281 24.160156 31.515625 24.332031 L 28.160156 30.105469 C 28.0625 30.277344 27.878906 30.382812 27.679688 30.382812 Z M 21.292969 29.277344 L 27.355469 29.277344 L 30.390625 24.054688 L 27.355469 18.832031 L 21.292969 18.832031 L 18.257812 24.054688 L 21.292969 29.277344 " fill-opacity="1" fill-rule="evenodd"/><path fill="#77b2e6" d="M 27.679688 18.832031 L 20.96875 18.832031 C 20.769531 18.832031 20.585938 18.730469 20.488281 18.558594 L 17.132812 12.785156 C 17.035156 12.609375 17.035156 12.402344 17.132812 12.230469 L 20.488281 6.453125 C 20.585938 6.28125 20.769531 6.175781 20.96875 6.175781 L 27.679688 6.175781 C 27.878906 6.175781 28.0625 6.28125 28.160156 6.453125 L 31.515625 12.230469 C 31.613281 12.398438 31.613281 12.609375 31.515625 12.78125 L 28.160156 18.554688 C 28.0625 18.730469 27.878906 18.832031 27.679688 18.832031 Z M 21.292969 17.726562 L 27.355469 17.726562 L 30.390625 12.507812 L 27.355469 7.285156 L 21.292969 7.285156 L 18.257812 12.507812 L 21.292969 17.726562 " fill-opacity="1" fill-rule="evenodd"/><path fill="#77b2e6" d="M 17.617188 24.609375 L 10.90625 24.609375 C 10.707031 24.609375 10.523438 24.503906 10.425781 24.332031 L 7.070312 18.558594 C 6.972656 18.386719 6.972656 18.175781 7.070312 18.003906 L 10.425781 12.230469 C 10.523438 12.054688 10.707031 11.953125 10.90625 11.953125 L 17.617188 11.953125 C 17.816406 11.953125 18 12.054688 18.097656 12.230469 L 21.453125 18.003906 C 21.550781 18.175781 21.550781 18.386719 21.453125 18.554688 L 18.097656 24.332031 C 18 24.5 17.816406 24.609375 17.617188 24.609375 Z M 11.226562 23.5 L 17.292969 23.5 L 20.328125 18.28125 L 17.292969 13.058594 L 11.226562 13.058594 L 8.195312 18.28125 L 11.226562 23.5 " fill-opacity="1" fill-rule="evenodd"/><g clip-path="url(#33e0259bdb)"><path fill="#7c60e9" d="M 45.066406 11.796875 C 42.609375 11.796875 40.609375 9.808594 40.609375 7.367188 C 40.609375 4.925781 42.609375 2.9375 45.066406 2.9375 C 47.523438 2.9375 49.523438 4.925781 49.523438 7.367188 C 49.523438 9.808594 47.523438 11.796875 45.066406 11.796875 Z M 45.066406 4.042969 C 43.222656 4.042969 41.722656 5.53125 41.722656 7.363281 C 41.722656 9.195312 43.222656 10.683594 45.066406 10.683594 C 46.90625 10.683594 48.40625 9.195312 48.40625 7.363281 C 48.40625 5.53125 46.910156 4.042969 45.066406 4.042969 " fill-opacity="1" fill-rule="evenodd"/></g><g clip-path="url(#76f936f7b8)"><path fill="#7c60e9" d="M 14.421875 49.445312 C 12.886719 49.445312 11.632812 48.203125 11.632812 46.675781 C 11.632812 45.148438 12.882812 43.90625 14.421875 43.90625 C 15.957031 43.90625 17.210938 45.148438 17.210938 46.675781 C 17.210938 48.203125 15.960938 49.445312 14.421875 49.445312 Z M 14.421875 45.015625 C 13.5 45.015625 12.75 45.761719 12.75 46.679688 C 12.75 47.59375 13.5 48.339844 14.421875 48.339844 C 15.34375 48.339844 16.09375 47.59375 16.09375 46.679688 C 16.09375 45.761719 15.347656 45.015625 14.421875 45.015625 " fill-opacity="1" fill-rule="evenodd"/></g><g clip-path="url(#acafc2e217)"><path fill="#7c60e9" d="M 25.828125 23.691406 L 24.457031 25.046875 L 24.085938 25.421875 C 23.925781 25.578125 23.671875 25.574219 23.515625 25.417969 L 23.128906 25.046875 L 22.78125 24.691406 C 22.707031 24.617188 22.664062 24.515625 22.664062 24.40625 C 22.664062 24.300781 22.707031 24.199219 22.78125 24.121094 L 22.785156 24.121094 C 22.941406 23.964844 23.195312 23.964844 23.351562 24.121094 L 23.792969 24.566406 L 25.261719 23.121094 C 25.335938 23.046875 25.4375 23.003906 25.542969 23.003906 C 25.546875 23.003906 25.546875 23.003906 25.546875 23.003906 C 25.652344 23.003906 25.753906 23.046875 25.832031 23.121094 C 25.90625 23.199219 25.949219 23.300781 25.949219 23.40625 C 25.949219 23.515625 25.90625 23.617188 25.828125 23.691406 Z M 28.007812 23.65625 L 27.992188 23.65625 C 27.796875 23.65625 27.601562 23.652344 27.40625 23.660156 C 27.378906 23.660156 27.359375 23.660156 27.34375 23.65625 C 27.261719 23.253906 27.101562 22.882812 26.882812 22.554688 C 26.898438 22.535156 26.917969 22.511719 26.949219 22.480469 C 27.082031 22.347656 27.214844 22.210938 27.351562 22.082031 C 27.109375 21.75 26.820312 21.457031 26.484375 21.21875 C 26.34375 21.359375 26.203125 21.5 26.0625 21.644531 C 26.046875 21.660156 26.027344 21.675781 26.011719 21.683594 C 25.679688 21.464844 25.308594 21.308594 24.90625 21.230469 C 24.902344 21.21875 24.902344 21.207031 24.902344 21.1875 C 24.90625 21.082031 24.902344 20.976562 24.902344 20.871094 L 24.90625 20.871094 C 24.90625 20.769531 24.902344 20.671875 24.90625 20.570312 C 24.710938 20.535156 24.511719 20.519531 24.308594 20.519531 C 24.101562 20.519531 23.902344 20.535156 23.707031 20.570312 C 23.710938 20.671875 23.707031 20.769531 23.707031 20.871094 L 23.710938 20.871094 C 23.710938 20.976562 23.707031 21.082031 23.710938 21.1875 C 23.710938 21.207031 23.710938 21.21875 23.707031 21.230469 C 23.304688 21.308594 22.933594 21.464844 22.601562 21.683594 C 22.585938 21.675781 22.570312 21.660156 22.550781 21.644531 C 22.410156 21.5 22.269531 21.359375 22.128906 21.21875 C 21.792969 21.457031 21.5 21.75 21.261719 22.082031 C 21.398438 22.210938 21.53125 22.347656 21.664062 22.480469 C 21.695312 22.511719 21.714844 22.535156 21.726562 22.554688 C 21.507812 22.882812 21.351562 23.253906 21.269531 23.65625 C 21.253906 23.660156 21.234375 23.660156 21.207031 23.660156 C 21.011719 23.652344 20.816406 23.65625 20.621094 23.65625 L 20.605469 23.65625 C 20.574219 23.855469 20.558594 24.0625 20.558594 24.269531 C 20.558594 24.476562 20.574219 24.679688 20.605469 24.878906 C 20.613281 24.878906 20.621094 24.878906 20.632812 24.878906 C 20.835938 24.878906 21.042969 24.878906 21.25 24.878906 C 21.257812 24.878906 21.261719 24.878906 21.269531 24.878906 C 21.351562 25.285156 21.511719 25.664062 21.738281 25.996094 C 21.730469 26.007812 21.71875 26.015625 21.707031 26.027344 C 21.574219 26.15625 21.441406 26.292969 21.308594 26.425781 C 21.292969 26.441406 21.28125 26.453125 21.269531 26.464844 C 21.507812 26.796875 21.796875 27.085938 22.128906 27.320312 L 22.136719 27.308594 C 22.277344 27.164062 22.425781 27.023438 22.566406 26.878906 C 22.574219 26.867188 22.585938 26.859375 22.597656 26.851562 C 22.929688 27.070312 23.304688 27.230469 23.707031 27.308594 C 23.710938 27.324219 23.714844 27.339844 23.710938 27.359375 C 23.707031 27.558594 23.710938 27.757812 23.710938 27.960938 L 23.710938 27.972656 C 23.902344 28.003906 24.105469 28.019531 24.308594 28.019531 C 24.511719 28.019531 24.710938 28.003906 24.902344 27.972656 L 24.902344 27.960938 C 24.902344 27.757812 24.90625 27.558594 24.898438 27.359375 C 24.898438 27.339844 24.902344 27.324219 24.90625 27.308594 C 25.308594 27.230469 25.683594 27.070312 26.015625 26.851562 C 26.027344 26.859375 26.035156 26.867188 26.046875 26.878906 C 26.1875 27.023438 26.335938 27.164062 26.476562 27.308594 C 26.480469 27.3125 26.480469 27.316406 26.484375 27.320312 C 26.816406 27.085938 27.105469 26.796875 27.34375 26.464844 C 27.332031 26.453125 27.320312 26.441406 27.304688 26.425781 C 27.171875 26.292969 27.039062 26.15625 26.90625 26.027344 C 26.894531 26.015625 26.882812 26.007812 26.878906 25.996094 C 27.101562 25.664062 27.261719 25.285156 27.34375 24.878906 C 27.347656 24.878906 27.355469 24.878906 27.363281 24.878906 C 27.570312 24.878906 27.777344 24.878906 27.980469 24.878906 C 27.992188 24.878906 28 24.878906 28.007812 24.878906 C 28.039062 24.679688 28.054688 24.476562 28.054688 24.269531 C 28.054688 24.0625 28.039062 23.855469 28.007812 23.65625 " fill-opacity="1" fill-rule="nonzero"/></g><g clip-path="url(#c54bb90789)"><path fill="#77b2e6" d="M 20.355469 18.347656 L 16.984375 24.347656 L 10.238281 24.347656 L 6.863281 18.347656 L 10.238281 12.347656 L 16.984375 12.347656 L 20.355469 18.347656 " fill-opacity="1" fill-rule="nonzero"/></g><g clip-path="url(#c367e22b56)"><path fill="#7c60e9" d="M 14.335938 33.71875 L 10.964844 39.71875 L 4.21875 39.71875 L 0.84375 33.71875 L 4.21875 27.71875 L 10.964844 27.71875 L 14.335938 33.71875 " fill-opacity="1" fill-rule="nonzero"/></g><g clip-path="url(#b93c27834d)"><path fill="#7c60e9" d="M 51.457031 29.898438 L 48.082031 35.898438 L 41.335938 35.898438 L 37.964844 29.898438 L 41.335938 23.898438 L 48.082031 23.898438 L 51.457031 29.898438 " fill-opacity="1" fill-rule="nonzero"/></g><g clip-path="url(#0da7ad31dc)"><path fill="#77b2e6" d="M 30.804688 35.785156 L 27.429688 41.785156 L 20.683594 41.785156 L 17.3125 35.785156 L 20.683594 29.785156 L 27.429688 29.785156 L 30.804688 35.785156 " fill-opacity="1" fill-rule="nonzero"/></g><g clip-path="url(#662abcd040)"><path fill="#77b2e6" d="M 41.25 18.347656 L 37.878906 24.347656 L 31.132812 24.347656 L 27.757812 18.347656 L 31.132812 12.347656 L 37.878906 12.347656 L 41.25 18.347656 " fill-opacity="1" fill-rule="nonzero"/></g><g clip-path="url(#7832d67175)"><path fill="#77b2e6" d="M 14.425781 43.804688 C 12.832031 43.804688 11.546875 45.085938 11.546875 46.683594 C 11.546875 48.277344 12.832031 49.5625 14.425781 49.5625 C 16.007812 49.5625 17.308594 48.277344 17.308594 46.683594 C 17.308594 45.085938 16.007812 43.804688 14.425781 43.804688 Z M 14.425781 49.121094 C 13.082031 49.121094 11.992188 48.027344 11.992188 46.683594 C 11.992188 45.339844 13.082031 44.246094 14.425781 44.246094 C 15.773438 44.246094 16.863281 45.339844 16.863281 46.683594 C 16.863281 48.027344 15.773438 49.121094 14.425781 49.121094 Z M 14.425781 49.121094 " fill-opacity="1" fill-rule="nonzero"/></g><g clip-path="url(#8eb8e2b036)"><path fill="#77b2e6" d="M 14.425781 44.246094 C 13.082031 44.246094 11.992188 45.339844 11.992188 46.683594 C 11.992188 48.027344 13.082031 49.121094 14.425781 49.121094 C 15.773438 49.121094 16.863281 48.027344 16.863281 46.683594 C 16.863281 45.339844 15.773438 44.246094 14.425781 44.246094 Z M 14.425781 44.246094 " fill-opacity="1" fill-rule="nonzero"/></g><g clip-path="url(#c2980ec29a)"><path fill="#77b2e6" d="M 45.371094 2.9375 C 42.765625 2.9375 40.664062 5.035156 40.664062 7.640625 C 40.664062 10.25 42.765625 12.347656 45.371094 12.347656 C 47.953125 12.347656 50.074219 10.25 50.074219 7.640625 C 50.074219 5.035156 47.953125 2.9375 45.371094 2.9375 Z M 45.371094 11.625 C 43.175781 11.625 41.390625 9.839844 41.390625 7.640625 C 41.390625 5.445312 43.175781 3.660156 45.371094 3.660156 C 47.566406 3.660156 49.351562 5.445312 49.351562 7.640625 C 49.351562 9.839844 47.566406 11.625 45.371094 11.625 Z M 45.371094 11.625 " fill-opacity="1" fill-rule="nonzero"/></g><path fill="#77b2e6" d="M 45.371094 3.660156 C 43.175781 3.660156 41.390625 5.445312 41.390625 7.640625 C 41.390625 9.839844 43.175781 11.625 45.371094 11.625 C 47.566406 11.625 49.351562 9.839844 49.351562 7.640625 C 49.351562 5.445312 47.566406 3.660156 45.371094 3.660156 Z M 45.371094 3.660156 " fill-opacity="1" fill-rule="nonzero"/></svg>